<svg version="1.1" xmlns="http://www.w3.org/2000/svg" xmlns:xlink="http://www.w3.org/1999/xlink" width="255.80627" height="241.39405" viewBox="0,0,255.80627,241.39405"><g transform="translate(-112.09687,-59.30298)"><g data-paper-data="{&quot;isPaintingLayer&quot;:true}" fill-rule="nonzero" stroke-width="0" stroke-linecap="round" stroke-linejoin="miter" stroke-miterlimit="10" stroke-dasharray="" stroke-dashoffset="0" style="mix-blend-mode: normal"><path d="M255.22255,73.23799c0,0 16.55137,-17.16047 38.42105,-13.15789c8.94311,1.63676 9.73684,28.42105 9.73684,28.42105c0,0 25.18554,-6.78905 30.26316,0c16.8645,22.54873 -7.36842,52.63158 -7.36842,52.63158l-79.21052,24.21053l-7.10527,10.52631l-10.52632,-11.57895z" fill="#f34ed9" stroke="#000000"/><path d="M345.58205,158.70483c0,0 20.74091,11.75772 22.3093,33.93527c0.64136,9.06901 -25.10191,16.50626 -25.10191,16.50626c0,0 12.84574,22.70219 7.53465,29.3102c-17.63992,21.94744 -52.80878,5.96735 -52.80878,5.96735l-55.22811,-68.48265l0.09496,-6.46666l8.59359,-13.07768z" fill="#f34ed9" stroke="#000000"/><path d="M287.74152,265.03813c0,0 -2.73482,23.68439 -22.54332,33.78026c-8.10024,4.12848 -24.99101,-16.67369 -24.99101,-16.67369c0,0 -15.89213,20.68435 -24.04849,18.37195c-27.09004,-7.68027 -26.09594,-46.29664 -26.09594,-46.29664l48.24676,-67.32539l-0.74408,-12.67811l15.39396,2.81092z" fill="#f34ed9" stroke="#000000"/><path d="M170.31846,249.60674c0,0 -23.16045,5.65888 -39.50601,-9.41182c-6.68415,-6.16282 6.95912,-29.22556 6.95912,-29.22556c0,0 -24.91547,-7.72151 -25.57894,-16.17333c-2.2036,-28.07135 34.35544,-40.54726 34.35544,-40.54726l79.88876,21.86878l11.631,-5.09981l2.70896,15.41223z" fill="#f34ed9" stroke="#000000"/><path d="M149.40221,131.52709c0,0 -11.53485,-20.86568 -1.27844,-40.59153c4.19413,-8.06644 30.02768,-0.94914 30.02768,-0.94914c0,0 0.91692,-26.06841 8.89891,-28.92522c26.51087,-9.48845 48.13804,22.51902 48.13804,22.51902l-0.15175,82.82774l7.97164,9.88641l-14.16231,6.65614z" fill="#f34ed9" stroke="#000000"/><g><path d="M238.6436,178.23799c0,0 -32.88619,-22.38362 -29.21052,-57.89473c5.14891,-49.74425 55.78947,-50.78948 55.78947,-50.78948c0,0 -5.24868,4.0512 -5.70059,8.31498c-1.56849,14.79872 18.18077,8.68761 18.38203,20.90479c0.1945,11.80725 -18.50492,9.08506 -17.96839,17.61516c0.33022,5.25008 7.02424,5.32468 5.90631,12.50898c-1.72715,11.09932 -10.2256,10.05231 -19.15799,14.28984c-4.20567,1.99517 -8.35351,7.93805 -9.71297,13.42351c-2.35147,9.48829 3.58243,20.49161 3.58243,20.49161z" fill="#ffffff" stroke="#00ff01"/><path d="M231.00802,161.44137c0,0 -7.32917,-16.22428 -7.1791,-28.69021c0.14265,-11.85008 5.31036,-29.24985 13.29133,-27.54067c7.42658,1.59046 -6.89701,22.10505 -1.99458,20.05441c3.36633,-1.40811 9.12987,-1.92141 6.76471,4.11765c-1.4193,3.62395 -7.26039,7.42324 -9.30209,14.44974c-2.59944,8.94598 -1.58027,17.60908 -1.58027,17.60908z" fill="#fbc1f2" stroke="#2200ff"/></g><g><path d="M239.19027,175.07984c0,0 11.82581,-37.98261 46.86628,-44.8175c49.08495,-9.57436 64.84573,38.56251 64.84573,38.56251c0,0 -5.40518,-3.83991 -9.61553,-3.02937c-14.61328,2.81322 -3.01094,19.92359 -14.63893,23.67723c-11.23784,3.62769 -14.08444,-15.0532 -22.08774,-12.05357c-4.92584,1.84619 -3.046,8.27128 -10.24419,9.29601c-11.12077,1.58313 -12.59641,-6.85147 -19.25358,-14.1608c-3.13442,-3.44148 -10.02826,-5.67694 -15.67178,-5.37844c-9.76169,0.51632 -18.55755,9.39986 -18.55755,9.39986z" fill="#ffffff" stroke="#00ff01"/><path d="M253.03185,162.87987c0,0 13.38341,-11.74003 25.35176,-15.23011c11.37707,-3.31766 29.52759,-3.44611 30.21895,4.68648c0.64333,7.56769 -23.15553,-0.15423 -19.76495,3.93758c2.3282,2.80971 4.49919,8.17335 -1.96704,7.67119c-3.88029,-0.30134 -9.21717,-4.78135 -16.53368,-4.68627c-9.3152,0.12106 -17.30505,3.62113 -17.30505,3.62113z" fill="#fbc1f2" stroke="#2200ff"/></g><g><path d="M239.5776,173.94489c0,0 39.7298,-2.01774 58.24436,28.50701c25.93534,42.75931 -13.79792,74.17314 -13.79792,74.17314c0,0 1.73718,-6.39868 -0.47741,-10.07014c-7.6864,-12.74289 -19.73774,4.05426 -27.27583,-5.56223c-7.28517,-9.29384 9.2636,-18.41619 3.6848,-24.89135c-3.43361,-3.98531 -8.81432,-0.0024 -12.26168,-6.40394c-5.32596,-9.89 2.08024,-14.18749 6.64109,-22.95919c2.1474,-4.13001 1.86479,-11.37173 -0.36416,-16.56502c-3.85545,-8.98291 -15.22989,-14.17005 -15.22989,-14.17005z" fill="#ffffff" stroke="#00ff01"/><path d="M255.80685,182.72214c0,0 15.63938,8.50609 23.04766,18.53303c7.04229,9.53157 13.43055,26.52121 6.03697,29.97837c-6.88,3.21702 -7.85129,-21.78439 -10.52057,-17.1894c-1.8329,3.15523 -6.11692,7.04484 -7.87855,0.80297c-1.05714,-3.74565 1.30437,-10.30128 -1.31139,-17.13487c-3.33032,-8.70038 -9.37412,-14.99009 -9.37412,-14.99009z" fill="#fbc1f2" stroke="#2200ff"/></g><g><path d="M242.50012,174.27202c0,0 14.53424,37.03085 -8.52781,64.28322c-32.3055,38.17533 -74.71423,10.47948 -74.71423,10.47948c0,0 6.61909,-0.38547 9.39686,-3.65167c9.64108,-11.33631 -10.11437,-17.42742 -3.39064,-27.62993c6.49813,-9.86019 20.40503,2.93345 24.77256,-4.41334c2.68811,-4.52177 -2.79779,-8.3585 2.17703,-13.66088c7.6858,-8.19185 14.11342,-2.53447 23.87961,-0.99639c4.59825,0.72419 11.37507,-1.84428 15.59128,-5.60753c7.29283,-6.50936 8.59795,-18.94241 8.59795,-18.94241z" fill="#ffffff" stroke="#00ff01"/><path d="M239.33309,192.44888c0,0 -3.0973,17.53142 -10.25145,27.74123c-6.8007,9.70541 -20.88093,21.15989 -26.50774,15.24753c-5.23596,-5.50167 18.16184,-14.36488 12.95692,-15.43619c-3.57405,-0.73564 -8.62309,-3.56212 -3.26417,-7.21537c3.21581,-2.19226 10.18203,-2.03562 15.8307,-6.68672c7.19176,-5.92167 11.23573,-13.65048 11.23573,-13.65048z" fill="#fbc1f2" stroke="#2200ff"/></g><g><path d="M242.00348,178.35757c0,0 -31.48852,24.31052 -64.1031,9.79023c-45.68676,-20.34014 -30.95628,-68.80222 -30.95628,-68.80222c0,0 2.22122,6.24717 6.13393,8.00066c13.58023,6.08601 13.90339,-14.58462 25.5792,-10.98247c11.28404,3.4813 2.89017,20.41121 11.16525,22.54982c5.09311,1.31627 7.24254,-5.02373 13.72462,-1.7303c10.01442,5.08814 6.38037,12.84145 7.63492,22.6481c0.59068,4.6173 4.9519,10.4054 9.74411,13.40093c8.28917,5.1814 20.59112,2.95735 20.59112,2.95735z" fill="#ffffff" stroke="#00ff01"/><path d="M223.6662,180.40035c0,0 -17.69807,1.92921 -29.50126,-2.08415c-11.22006,-3.81508 -26.15523,-14.13005 -22.0524,-21.18582c3.81782,-6.56565 18.87091,13.41979 18.44385,8.12295c-0.29325,-3.63717 1.00841,-9.27521 6.01459,-5.15181c3.00414,2.47439 4.80195,9.20646 10.8472,13.32899c7.69667,5.24871 16.24803,6.96984 16.24803,6.96984z" fill="#fbc1f2" stroke="#2200ff"/></g></g></g></svg>